<mxfile host="app.diagrams.net" modified="2023-02-08T00:53:57.303Z" agent="5.0 (Windows NT 10.0; Win64; x64) AppleWebKit/537.36 (KHTML, like Gecko) Chrome/109.0.0.0 Safari/537.36" etag="Y0YFOUekBqGAHH0hb2b2" version="20.8.17" type="github">
  <diagram name="Page-1" id="ubEjw9Soe5WlUHQYBvOu">
    <mxGraphModel dx="1194" dy="726" grid="1" gridSize="10" guides="1" tooltips="1" connect="1" arrows="1" fold="1" page="1" pageScale="1" pageWidth="850" pageHeight="1100" math="0" shadow="0">
      <root>
        <mxCell id="0" />
        <mxCell id="1" parent="0" />
        <object label="Admin" id="Pv28IN-DxyeYV7XUeNie-1">
          <mxCell style="shape=umlActor;verticalLabelPosition=bottom;verticalAlign=top;html=1;" parent="1" vertex="1">
            <mxGeometry x="90" y="120" width="40" height="80" as="geometry" />
          </mxCell>
        </object>
        <object label="Teacher" id="Pv28IN-DxyeYV7XUeNie-11">
          <mxCell style="shape=umlActor;verticalLabelPosition=bottom;verticalAlign=top;html=1;" parent="1" vertex="1">
            <mxGeometry x="719" y="450" width="40" height="80" as="geometry" />
          </mxCell>
        </object>
        <mxCell id="c3HVRP4QYgYHFnV6ZERY-1" value="check every attenders" style="ellipse;whiteSpace=wrap;html=1;" parent="1" vertex="1">
          <mxGeometry x="330" y="40" width="190" height="40" as="geometry" />
        </mxCell>
        <mxCell id="c3HVRP4QYgYHFnV6ZERY-2" value="check &amp;amp; collects payments" style="ellipse;whiteSpace=wrap;html=1;" parent="1" vertex="1">
          <mxGeometry x="330" y="90" width="190" height="40" as="geometry" />
        </mxCell>
        <mxCell id="c3HVRP4QYgYHFnV6ZERY-3" value="gives teachers salary" style="ellipse;whiteSpace=wrap;html=1;" parent="1" vertex="1">
          <mxGeometry x="330" y="140" width="190" height="40" as="geometry" />
        </mxCell>
        <mxCell id="c3HVRP4QYgYHFnV6ZERY-4" value="scanning bar Coad" style="ellipse;whiteSpace=wrap;html=1;" parent="1" vertex="1">
          <mxGeometry x="330" y="200" width="190" height="40" as="geometry" />
        </mxCell>
        <mxCell id="c3HVRP4QYgYHFnV6ZERY-5" value="" style="ellipse;whiteSpace=wrap;html=1;" parent="1" vertex="1">
          <mxGeometry x="330" y="260" width="190" height="40" as="geometry" />
        </mxCell>
        <mxCell id="c3HVRP4QYgYHFnV6ZERY-6" value="" style="ellipse;whiteSpace=wrap;html=1;" parent="1" vertex="1">
          <mxGeometry x="330" y="310" width="190" height="40" as="geometry" />
        </mxCell>
        <mxCell id="c3HVRP4QYgYHFnV6ZERY-7" value="generating bar Coad" style="ellipse;whiteSpace=wrap;html=1;" parent="1" vertex="1">
          <mxGeometry x="330" y="370" width="190" height="40" as="geometry" />
        </mxCell>
        <mxCell id="c3HVRP4QYgYHFnV6ZERY-8" value="validate bar Coad" style="ellipse;whiteSpace=wrap;html=1;" parent="1" vertex="1">
          <mxGeometry x="330" y="420" width="190" height="40" as="geometry" />
        </mxCell>
        <mxCell id="c3HVRP4QYgYHFnV6ZERY-9" value="takes every attenders" style="ellipse;whiteSpace=wrap;html=1;" parent="1" vertex="1">
          <mxGeometry x="330" y="480" width="190" height="40" as="geometry" />
        </mxCell>
        <object label="System" id="c3HVRP4QYgYHFnV6ZERY-13">
          <mxCell style="shape=umlActor;verticalLabelPosition=bottom;verticalAlign=top;html=1;" parent="1" vertex="1">
            <mxGeometry x="90" y="450" width="40" height="80" as="geometry" />
          </mxCell>
        </object>
        <mxCell id="c3HVRP4QYgYHFnV6ZERY-14" value="generating &amp;amp; send a receipt" style="ellipse;whiteSpace=wrap;html=1;" parent="1" vertex="1">
          <mxGeometry x="330" y="530" width="190" height="40" as="geometry" />
        </mxCell>
        <mxCell id="c3HVRP4QYgYHFnV6ZERY-16" value="" style="endArrow=none;html=1;rounded=0;" parent="1" edge="1">
          <mxGeometry width="50" height="50" relative="1" as="geometry">
            <mxPoint x="240" y="641.6000366210938" as="sourcePoint" />
            <mxPoint x="240" y="10" as="targetPoint" />
          </mxGeometry>
        </mxCell>
        <mxCell id="c3HVRP4QYgYHFnV6ZERY-17" value="" style="endArrow=none;html=1;rounded=0;" parent="1" edge="1">
          <mxGeometry width="50" height="50" relative="1" as="geometry">
            <mxPoint x="600" y="643.199951171875" as="sourcePoint" />
            <mxPoint x="600" y="10" as="targetPoint" />
          </mxGeometry>
        </mxCell>
        <mxCell id="c3HVRP4QYgYHFnV6ZERY-18" value="" style="endArrow=none;html=1;rounded=0;entryX=0;entryY=0.5;entryDx=0;entryDy=0;" parent="1" target="c3HVRP4QYgYHFnV6ZERY-7" edge="1">
          <mxGeometry width="50" height="50" relative="1" as="geometry">
            <mxPoint x="160" y="470" as="sourcePoint" />
            <mxPoint x="210" y="420" as="targetPoint" />
          </mxGeometry>
        </mxCell>
        <mxCell id="c3HVRP4QYgYHFnV6ZERY-19" value="" style="endArrow=none;html=1;rounded=0;entryX=0;entryY=0.5;entryDx=0;entryDy=0;" parent="1" target="c3HVRP4QYgYHFnV6ZERY-14" edge="1">
          <mxGeometry width="50" height="50" relative="1" as="geometry">
            <mxPoint x="160" y="520" as="sourcePoint" />
            <mxPoint x="210" y="480" as="targetPoint" />
          </mxGeometry>
        </mxCell>
        <mxCell id="c3HVRP4QYgYHFnV6ZERY-21" value="" style="endArrow=none;html=1;rounded=0;entryX=0;entryY=0.5;entryDx=0;entryDy=0;" parent="1" target="c3HVRP4QYgYHFnV6ZERY-1" edge="1">
          <mxGeometry width="50" height="50" relative="1" as="geometry">
            <mxPoint x="150" y="140" as="sourcePoint" />
            <mxPoint x="200" y="90" as="targetPoint" />
          </mxGeometry>
        </mxCell>
        <mxCell id="c3HVRP4QYgYHFnV6ZERY-22" value="" style="endArrow=none;html=1;rounded=0;entryX=0;entryY=0.5;entryDx=0;entryDy=0;" parent="1" target="c3HVRP4QYgYHFnV6ZERY-2" edge="1">
          <mxGeometry width="50" height="50" relative="1" as="geometry">
            <mxPoint x="160" y="150" as="sourcePoint" />
            <mxPoint x="210" y="100" as="targetPoint" />
          </mxGeometry>
        </mxCell>
        <mxCell id="c3HVRP4QYgYHFnV6ZERY-23" value="" style="endArrow=none;html=1;rounded=0;entryX=0;entryY=0.5;entryDx=0;entryDy=0;" parent="1" target="c3HVRP4QYgYHFnV6ZERY-3" edge="1">
          <mxGeometry width="50" height="50" relative="1" as="geometry">
            <mxPoint x="170" y="160" as="sourcePoint" />
            <mxPoint x="220" y="110" as="targetPoint" />
          </mxGeometry>
        </mxCell>
        <mxCell id="c3HVRP4QYgYHFnV6ZERY-25" value="" style="endArrow=none;html=1;rounded=0;entryX=0;entryY=0.5;entryDx=0;entryDy=0;" parent="1" target="c3HVRP4QYgYHFnV6ZERY-8" edge="1">
          <mxGeometry width="50" height="50" relative="1" as="geometry">
            <mxPoint x="160" y="490" as="sourcePoint" />
            <mxPoint x="350" y="460" as="targetPoint" />
          </mxGeometry>
        </mxCell>
        <mxCell id="c3HVRP4QYgYHFnV6ZERY-26" value="" style="endArrow=none;html=1;rounded=0;entryX=0;entryY=0.5;entryDx=0;entryDy=0;" parent="1" target="c3HVRP4QYgYHFnV6ZERY-9" edge="1">
          <mxGeometry width="50" height="50" relative="1" as="geometry">
            <mxPoint x="160" y="500" as="sourcePoint" />
            <mxPoint x="360" y="470" as="targetPoint" />
          </mxGeometry>
        </mxCell>
        <mxCell id="c3HVRP4QYgYHFnV6ZERY-27" value="" style="endArrow=none;html=1;rounded=0;exitX=1;exitY=0;exitDx=0;exitDy=0;" parent="1" source="c3HVRP4QYgYHFnV6ZERY-4" edge="1">
          <mxGeometry width="50" height="50" relative="1" as="geometry">
            <mxPoint x="520" y="220" as="sourcePoint" />
            <mxPoint x="710" y="60" as="targetPoint" />
          </mxGeometry>
        </mxCell>
        <mxCell id="c3HVRP4QYgYHFnV6ZERY-29" value="takes a payments records" style="ellipse;whiteSpace=wrap;html=1;" parent="1" vertex="1">
          <mxGeometry x="330" y="580" width="190" height="40" as="geometry" />
        </mxCell>
        <mxCell id="WhDdKDSkJW6FN5Jh-hv0-1" style="edgeStyle=orthogonalEdgeStyle;rounded=0;orthogonalLoop=1;jettySize=auto;html=1;exitX=0.5;exitY=0.5;exitDx=0;exitDy=0;exitPerimeter=0;entryX=0.5;entryY=0;entryDx=0;entryDy=0;entryPerimeter=0;" edge="1" parent="1" source="WhDdKDSkJW6FN5Jh-hv0-4" target="WhDdKDSkJW6FN5Jh-hv0-5">
          <mxGeometry relative="1" as="geometry" />
        </mxCell>
        <mxCell id="WhDdKDSkJW6FN5Jh-hv0-2" style="edgeStyle=orthogonalEdgeStyle;rounded=0;orthogonalLoop=1;jettySize=auto;html=1;exitX=0.5;exitY=0.5;exitDx=0;exitDy=0;exitPerimeter=0;entryX=0.5;entryY=0;entryDx=0;entryDy=0;entryPerimeter=0;" edge="1" parent="1" source="WhDdKDSkJW6FN5Jh-hv0-4" target="WhDdKDSkJW6FN5Jh-hv0-6">
          <mxGeometry relative="1" as="geometry" />
        </mxCell>
        <mxCell id="WhDdKDSkJW6FN5Jh-hv0-3" style="edgeStyle=orthogonalEdgeStyle;rounded=0;orthogonalLoop=1;jettySize=auto;html=1;exitX=0.5;exitY=0.5;exitDx=0;exitDy=0;exitPerimeter=0;entryX=0.5;entryY=0;entryDx=0;entryDy=0;entryPerimeter=0;" edge="1" parent="1" source="WhDdKDSkJW6FN5Jh-hv0-4" target="WhDdKDSkJW6FN5Jh-hv0-7">
          <mxGeometry relative="1" as="geometry" />
        </mxCell>
        <object label="Student" id="WhDdKDSkJW6FN5Jh-hv0-4">
          <mxCell style="shape=umlActor;verticalLabelPosition=bottom;verticalAlign=top;html=1;" vertex="1" parent="1">
            <mxGeometry x="789" y="30" width="40" height="80" as="geometry" />
          </mxCell>
        </object>
        <object label="PlarSchool" id="WhDdKDSkJW6FN5Jh-hv0-5">
          <mxCell style="shape=umlActor;verticalLabelPosition=bottom;verticalAlign=top;html=1;" vertex="1" parent="1">
            <mxGeometry x="710" y="230" width="40" height="80" as="geometry" />
          </mxCell>
        </object>
        <object label="LKG" id="WhDdKDSkJW6FN5Jh-hv0-6">
          <mxCell style="shape=umlActor;verticalLabelPosition=bottom;verticalAlign=top;html=1;" vertex="1" parent="1">
            <mxGeometry x="789" y="230" width="40" height="80" as="geometry" />
          </mxCell>
        </object>
        <object label="UKG" id="WhDdKDSkJW6FN5Jh-hv0-7">
          <mxCell style="shape=umlActor;verticalLabelPosition=bottom;verticalAlign=top;html=1;" vertex="1" parent="1">
            <mxGeometry x="870" y="230" width="40" height="80" as="geometry" />
          </mxCell>
        </object>
        <mxCell id="WhDdKDSkJW6FN5Jh-hv0-8" value="Log into the system." style="ellipse;whiteSpace=wrap;html=1;" vertex="1" parent="1">
          <mxGeometry x="829" y="470" width="190" height="40" as="geometry" />
        </mxCell>
        <mxCell id="WhDdKDSkJW6FN5Jh-hv0-9" value="Register new students." style="ellipse;whiteSpace=wrap;html=1;" vertex="1" parent="1">
          <mxGeometry x="829" y="520" width="190" height="40" as="geometry" />
        </mxCell>
        <mxCell id="WhDdKDSkJW6FN5Jh-hv0-10" value="Register new teachers." style="ellipse;whiteSpace=wrap;html=1;" vertex="1" parent="1">
          <mxGeometry x="829" y="570" width="190" height="40" as="geometry" />
        </mxCell>
        <mxCell id="WhDdKDSkJW6FN5Jh-hv0-11" value="Mark attendence of students." style="ellipse;whiteSpace=wrap;html=1;" vertex="1" parent="1">
          <mxGeometry x="829" y="630" width="190" height="40" as="geometry" />
        </mxCell>
        <mxCell id="WhDdKDSkJW6FN5Jh-hv0-12" value="Mark attendence of teachers." style="ellipse;whiteSpace=wrap;html=1;" vertex="1" parent="1">
          <mxGeometry x="829" y="690" width="190" height="40" as="geometry" />
        </mxCell>
        <mxCell id="WhDdKDSkJW6FN5Jh-hv0-13" value="View, Update,Delete, Search students" style="ellipse;whiteSpace=wrap;html=1;" vertex="1" parent="1">
          <mxGeometry x="829" y="740" width="190" height="40" as="geometry" />
        </mxCell>
        <mxCell id="WhDdKDSkJW6FN5Jh-hv0-14" value="View, Update, Delete,Search teachers" style="ellipse;whiteSpace=wrap;html=1;" vertex="1" parent="1">
          <mxGeometry x="829" y="790" width="190" height="50" as="geometry" />
        </mxCell>
        <mxCell id="WhDdKDSkJW6FN5Jh-hv0-15" value="salaray&amp;nbsp;" style="ellipse;whiteSpace=wrap;html=1;" vertex="1" parent="1">
          <mxGeometry x="829" y="850" width="190" height="40" as="geometry" />
        </mxCell>
      </root>
    </mxGraphModel>
  </diagram>
</mxfile>
